PathFileType	3	(X/Y/Z)	D:\Vicon Setup\UG\Test1\New Session\NewSession14.trc
DataRate	CameraRate	NumFrames	NumMarkers	Units	OrigDataRate	OrigDataStartFrame	OrigNumFrames
100.0	100.0	10	27	mm	100.0	398	173	
Frame#	Time	Sternum			LShoulder			RShoulder			LASIS			RASIS			RPSIS			LPSIS			RKneeLateral			RKneeMedial			RFibulaHead			RMidShank			RAnkleLateral			RAnkleMedial			RHeel			RMT5			RMT2			RToe			LKneeLateral			LKneeMedial			LFibulaHead			LMidShank			LAnkleLateral			LAnkleMedial			LHeel			LMT5			LMT2			LToe			
		X1	Y1	Z1	X2	Y2	Z2	X3	Y3	Z3	X4	Y4	Z4	X5	Y5	Z5	X6	Y6	Z6	X7	Y7	Z7	X8	Y8	Z8	X9	Y9	Z9	X10	Y10	Z10	X11	Y11	Z11	X12	Y12	Z12	X13	Y13	Z13	X14	Y14	Z14	X15	Y15	Z15	X16	Y16	Z16	X17	Y17	Z17	X18	Y18	Z18	X19	Y19	Z19	X20	Y20	Z20	X21	Y21	Z21	X22	Y22	Z22	X23	Y23	Z23	X24	Y24	Z24	X25	Y25	Z25	X26	Y26	Z26	X27	Y27	Z27	
398	3.97	-232.02696	1389.2073	-924.7464	-399.33875	1433.4878	-814.66101	-35.24231	1425.1643	-875.78455	-331.38797	990.36584	-854.94574	-79.864655	1003.2586	-857.13092	-152.18149	1040.4844	-690.33307	-280.83096	1029.373	-683.52509	-55.067303	528.03821	-751.58423	-180.34024	498.74295	-775.24384	-49.911171	472.41763	-702.66351	-138.46333	362.20279	-586.51776	-95.78009	311.8125	-382.88934	-162.69859	270.40729	-438.56726	-172.18433	360.71948	-354.29932	-49.059448	156.66873	-348.00323	-107.78641	154.66492	-398.9696	-99.71962	110.69583	-399.8479	-352.23911	522.56439	-923.48267	-225.55542	517.58228	-940.60535	-354.39789	457.4772	-915.03375	-270.42963	309.90747	-960.74017	-304.79013	98.089912	-912.83936	-226.2356	127.81869	-953.2558	-232.71675	70.848495	-841.5675				-273.16443	61.757019	-1063.4745	-332.22638	40.431137	-1043.3231
399	3.98	-232.28888	1379.484	-953.36047	-402.936	1423.8037	-844.25281	-36.344666	1419.0963	-901.56995	-332.52493	984.32288	-883.28058	-80.527267	996.39685	-885.16925	-152.5938	1031.3511	-717.8891	-281.92184	1020.6872	-710.71252	-54.974972	519.31451	-796.02374	-181.47021	491.51489	-817.71429	-50.494812	465.5087	-746.93982	-138.82101	361.56769	-626.3385	-95.348228	320.41245	-421.41861	-162.81161	277.09323	-474.81061	-171.59811	370.00287	-393.177	-47.530525	166.65771	-383.50925	-107.23225	163.07213	-433.37225	-99.091385	118.95599	-433.34213	-350.33643	514.74847	-949.00726	-225.11148	509.69977	-966.01263	-351.47168	449.16199	-939.17639	-262.18893	301.90036	-973.68475	-295.73804	97.132362	-911.02515	-212.09341	120.45576	-946.69879	-224.36006	65.081482	-841.23889				-267.49503	60.776226	-1062.4525	-327.90277	41.905109	-1041.8262
400	3.99	-232.12285	1368.7098	-981.8739	-406.69897	1413.5135	-874.29718	-37.477875	1412.7864	-926.94922	-333.87979	978.48578	-910.98859	-81.78447	988.61536	-912.4787	-152.86731	1021.5038	-744.25635	-283.21677	1011.6661	-736.85583	-54.705013	510.80905	-841.19684	-182.95703	484.33246	-861.96283	-50.92934	459.10458	-792.15833	-138.99437	360.85956	-668.06427	-94.588852	327.78241	-462.23743	-162.56007	282.8259	-514.00897	-170.44853	378.0661	-434.14325	-46.396404	174.90022	-421.95151	-106.54543	170.55145	-471.39505	-98.440323	126.31558	-470.73471	-348.55023	506.33514	-975.93884	-221.72369	503.30566	-990.57721	-348.40784	442.32086	-963.43933	-252.12378	296.03171	-984.30396	-289.53275	98.840981	-913.99261	-206.98117	119.00703	-952.49261	-222.91365	64.958832	-841.85175				-266.33823	58.305958	-1065.0044	-326.50925	42.323761	-1043.0577
401	4	-231.4608	1357.3738	-1010.6962	-410.37802	1403.3217	-904.82007	-38.718525	1406.7666	-952.05658	-335.5159	972.91724	-937.73468	-82.503929	981.25482	-939.45245	-153.2513	1010.7099	-768.90491	-284.86734	1002.7606	-761.73669	-54.547165	503.54816	-886.67419	-184.86047	477.82248	-908.04279	-51.212147	453.90848	-838.29065	-139.20401	360.16385	-711.49921	-93.49778	334.06512	-505.13477	-162.54141	288.56387	-555.573	-168.82094	384.78275	-476.53098	-45.386734	181.52904	-463.81891	-105.77939	177.05687	-513.5874	-97.992279	132.47086	-512.5036	-346.04184	500.25702	-1000.9736	-219.74489	498.67142	-1016.6738	-346.67068	437.80682	-986.26501	-248.42902	293.05191	-998.18243	-286.67279	100.63625	-915.797	-203.04456	116.72723	-958.3399	-221.70877	65.995804	-842.70569				-264.49515	57.438709	-1065.8936	-326.13956	42.259274	-1043.5255
402	4.01	-230.26927	1346.058	-1040.5062	-414.04407	1394.3484	-935.76727	-39.44648	1401.5011	-977.58008	-337.60898	967.97668	-963.95062	-83.014328	974.07642	-965.36249	-153.66489	999.68524	-792.22235	-285.82349	994.83429	-785.96118	-54.981148	498.10922	-932.26001	-186.88689	472.92386	-955.07629	-51.614143	450.66006	-885.34119	-139.75308	360.4418	-756.46802	-92.45594	338.87531	-550.11896	-162.07692	293.77991	-599.36011	-166.75793	389.8356	-519.63776	-44.439861	185.55214	-510.56503	-105.52876	182.05888	-559.12872	-97.972443	137.38031	-558.66425	-345.13403	497.47055	-1022.1554	-218.59253	495.04059	-1039.5961	-345.80093	435.87048	-1009.61	-247.48026	289.59961	-1011.7755	-287.0784	101.52485	-917.1723	-202.6107	118.01387	-956.45447	-221.96033	66.987305	-843.31494				-264.65659	56.746777	-1066.2524	-325.56	42.495296	-1043.7532
403	4.02	-228.50511	1335.1462	-1071.178	-416.71103	1386.8326	-967.32343	-40.456676	1397.2446	-1002.9667	-339.9902	963.60431	-990.57977	-82.168625	967.26624	-990.88153	-153.19093	989.29517	-815.60645	-284.45972	989.50085	-810.55719	-56.29406	495.86005	-977.6441	-188.37439	470.74161	-1002.777	-52.188126	449.52002	-932.98285	-141.49954	360.72159	-803.78241	-91.320053	341.8671	-596.83789	-162.32094	297.98605	-645.33258	-164.18456	392.9223	-563.41968	-43.354935	187.63402	-561.26038	-105.75816	185.41478	-608.17999	-98.648331	140.63887	-608.80426	-344.92572	494.70432	-1044.2178	-216.67722	492.06583	-1056.3882	-345.88419	432.7132	-1031.0199	-248.43803	286.55991	-1024.1602	-288.39835	101.97025	-918.54449	-203.97101	118.31163	-959.74591	-222.88065	68.034523	-843.4798				-264.9671	56.256779	-1066.2257	-326.36252	42.028717	-1043.7599
404	4.03	-226.17647	1325.955	-1100.6572	-418.75375	1380.9982	-999.80328	-41.809048	1394.4631	-1028.2477	-342.2597	959.62781	-1017.447	-80.818153	960.55981	-1016.4454	-152.02869	981.34741	-839.62122	-283.07428	988.73425	-836.77069	-57.256073	497.18359	-1023.0888	-189.87604	471.58441	-1049.2859	-52.79612	450.42877	-980.75757	-141.64294	360.63736	-850.50793	-90.379326	342.53259	-645.16827	-162.28192	300.61523	-693.03229	-161.32999	393.73737	-608.10046	-42.380634	187.48741	-615.06805	-106.20702	186.99721	-660.02667	-99.613617	142.15672	-661.93597	-345.0499	490.88495	-1066.125	-215.33583	489.04044	-1070.4076	-346.68787	429.55005	-1048.6315	-249.73973	283.65027	-1034.525	-289.67871	102.15254	-919.26599	-204.35251	118.21024	-959.90582	-223.74657	68.503792	-843.60858				-265.57306	55.824268	-1066.0925	-327.47421	41.405586	-1043.7472
405	4.04	-223.94081	1319.7396	-1127.9746	-420.26758	1376.9236	-1033.3544	-43.358105	1393.1738	-1052.7946	-343.12067	957.26361	-1044.3267	-79.079491	955.81732	-1041.9115	-151.86786	979.68164	-866.09674	-282.7775	989.74829	-863.60077	-57.827877	500.40961	-1068.9287	-191.26746	474.22217	-1093.9119	-53.095367	453.15671	-1028.8207	-141.67627	361.83109	-898.84979	-89.095024	341.46716	-694.32654	-162.50543	301.72235	-741.91736	-158.66985	392.07288	-653.75049	-42.207966	184.94887	-670.84888	-106.66221	186.88399	-713.70398	-100.53537	142.11592	-717.47443	-345.68979	487.07959	-1083.474	-216.34816	485.35706	-1083.6271	-347.54233	425.72424	-1063.0321	-249.55463	280.86227	-1039.8661	-289.94769	103.06871	-920.09509	-204.18062	118.47973	-961.60596	-223.181	69.628571	-844.38196				-265.84366	55.506226	-1066.106	-327.86823	41.079567	-1043.5503
406	4.05	-222.35127	1317.7406	-1155.2119	-421.26749	1374.5304	-1066.7789	-44.504269	1393.1904	-1076.5873	-342.31784	955.79681	-1071.4755	-78.654449	954.73779	-1067.0665	-153.62137	984.39233	-894.01288	-283.74292	990.88971	-891.53033	-58.063492	504.33893	-1114.4203	-191.93442	479.00702	-1140.3282	-53.7075	457.38522	-1076.6917	-141.15181	363.50964	-947.62543	-87.986084	338.49869	-744.0838	-161.94824	300.8989	-792.14172	-156.48994	387.93268	-700.17609	-41.686707	181.1075	-727.87781	-106.72643	185.0928	-769.21259	-101.10014	140.5423	-775.14526	-347.02118	482.68958	-1095.5751	-218.58981	479.5715	-1096.3156	-348.71527	421.86038	-1073.1272	-248.81602	278.76401	-1045.2369	-288.72733	104.31307	-921.3465	-202.99895	118.75542	-963.42645	-222.20932	71.035179	-845.13824				-265.64923	55.185539	-1066.2247	-327.53171	41.178646	-1043.3162
407	4.06	-221.26616	1319.9546	-1183.4866	-422.40729	1373.8944	-1099.7441	-45.499004	1394.4811	-1100.1016	-341.45523	955.48138	-1098.9658	-79.395973	961.03137	-1095.1973	-155.15569	989.1712	-922.6507	-285.43567	993.15082	-918.51416	-58.328335	509.67044	-1159.0573	-192.2243	485.66934	-1184.6075	-54.549683	463.18454	-1124.0046	-140.41241	365.81357	-996.8869	-86.960663	333.71997	-794.40295	-161.49689	298.48441	-843.28998	-154.69592	381.18393	-747.01617	-40.835667	175.75505	-786.3183	-106.1832	182.17903	-827.39374	-101.09668	137.8056	-834.79071	-348.65018	478.75235	-1102.9189	-221.10161	473.45544	-1109.1368	-350.04926	418.42612	-1079.5226	-249.19261	276.91562	-1050.9681	-288.33746	106.06496	-922.77136	-202.46892	119.50038	-965.39612	-222.01398	73.168304	-846.23572				-265.59799	54.96891	-1066.4229	-327.16049	41.385124	-1043.2086
